# xmcd CD database file
#
# Track frame offsets:
#	150
#	21858
#	36650
#	58773
#	76405
#	100451
#	124980
#	140774
#	161683
#	182191
#	202781
#
# Disc length: 2868 seconds
#
# Revision: 0
# Processed by: cddbd v1.5.2PL0 Copyright (c) Steve Scherf et al.
# Submitted via: CDex 1.70beta2
#
DISCID=a10b320b
DTITLE=Jacintha - Fire and Rain
DYEAR=2018
DGENRE=Jazz
TTITLE0=Fire and Rain
TTITLE1=Something In The Way She Moves
TTITLE2=Walking Man
TTITLE3=Sweet Baby James
TTITLE4=Don't Let Me Be Lonely Tonight
TTITLE5=You've Got A Friend
TTITLE6=Long Ago And Faraway
TTITLE7=The Water Is Wide
TTITLE8=Shower The People
TTITLE9=Fire and Rain (Bonus Cut - Alternate Take)
TTITLE10=On The Road Jam  
EXTD=YEAR: 2018
EXTT0=
EXTT1=
EXTT2=
EXTT3=
EXTT4=
EXTT5=
EXTT6=
EXTT7=
EXTT8=
EXTT9=
EXTT10=
PLAYORDER=
